<?xml version="1.0" ?><svg style="enable-background:new 0 0 48 48;" version="1.1" viewBox="0 0 48 48" xml:space="preserve" xmlns="http://www.w3.org/2000/svg" xmlns:xlink="http://www.w3.org/1999/xlink"><g id="Padding__x26__Artboard"/><g id="Icons"><g><path d="M30.37744,10.15796H17.62158c-4.11572,0-7.46387,3.34863-7.46387,7.46436v12.75586    c0,4.11621,3.34814,7.46387,7.46387,7.46387h12.75586c4.11621,0,7.46484-3.34766,7.46484-7.46387V17.62231    C37.84229,13.50659,34.49365,10.15796,30.37744,10.15796z M24,30.76294c-3.729,0-6.76318-3.03369-6.76318-6.7627    c0-3.72949,3.03418-6.76367,6.76318-6.76367s6.76318,3.03418,6.76318,6.76367C30.76318,27.72925,27.729,30.76294,24,30.76294z     M12.44873,27.21558v-1.35449c0-0.19336,0.15674-0.3501,0.3501-0.3501s0.3501,0.15674,0.3501,0.3501v1.35449    c0,0.19336-0.15674,0.3501-0.3501,0.3501S12.44873,27.40894,12.44873,27.21558z M13.14893,19.48804v4.51221    c0,0.19336-0.15674,0.3501-0.3501,0.3501s-0.3501-0.15674-0.3501-0.3501v-4.51221c0-0.19336,0.15674-0.3501,0.3501-0.3501    S13.14893,19.29468,13.14893,19.48804z M32.47223,16.72614c-0.50897,0-0.92163-0.4126-0.92163-0.92163    s0.41266-0.92169,0.92163-0.92169c0.50903,0,0.92169,0.41266,0.92169,0.92169S32.98126,16.72614,32.47223,16.72614z" style="fill:#303030;"/></g></g></svg>